<?xml version="1.0" encoding="utf-8"?>
<!-- Generator: Adobe Illustrator 27.5.0, SVG Export Plug-In . SVG Version: 6.00 Build 0)  -->
<svg version="1.1" xmlns="http://www.w3.org/2000/svg" xmlns:xlink="http://www.w3.org/1999/xlink" x="0px" y="0px"
	 viewBox="0 0 750 500" style="enable-background:new 0 0 750 500;" xml:space="preserve">
<g id="BACKGROUND">
	<rect style="fill:#FFFEFD;" width="750" height="500"/>
</g>
<g id="OBJECTS">
	<g>
		<defs>
			<rect id="SVGID_1_" width="750" height="500"/>
		</defs>
		<clipPath id="SVGID_00000008860794351314978820000016330052674785512625_">
			<use xlink:href="#SVGID_1_"  style="overflow:visible;"/>
		</clipPath>
		<g style="clip-path:url(#SVGID_00000008860794351314978820000016330052674785512625_);">
			
				<ellipse transform="matrix(0.7071 -0.7071 0.7071 0.7071 187.5856 364.9213)" style="fill:#F6F6F6;" cx="534.292" cy="-43.975" rx="181.1" ry="181.1"/>
			
				<ellipse transform="matrix(0.7071 -0.7071 0.7071 0.7071 -312.321 367.6377)" style="fill:#F6F6F6;" cx="287.618" cy="560.824" rx="181.1" ry="181.1"/>
		</g>
		<g style="clip-path:url(#SVGID_00000008860794351314978820000016330052674785512625_);">
			<g>
				<path style="fill:#EBC6B9;" d="M832.152,144.288H701.88c-39.759,0-71.99-32.231-71.99-71.991V-37.403
					c0-39.759,32.231-71.99,71.99-71.99h130.272c39.759,0,71.99,32.231,71.99,71.99V72.298
					C904.142,112.057,871.911,144.288,832.152,144.288z"/>
				<path style="fill:#FFFEFD;" d="M712.344-77.721L712.344-77.721c20.711,0,37.656,16.945,37.656,37.657V74.959
					c0,20.711-16.945,37.657-37.656,37.657l0,0c-20.711,0-37.656-16.945-37.656-37.657V-40.064
					C674.687-60.775,691.632-77.721,712.344-77.721z"/>
				<path style="fill:#CEE4E4;" d="M712.344-108.875L712.344-108.875c20.711,0,37.656,16.945,37.656,37.657V43.805
					c0,20.711-16.945,37.657-37.656,37.657l0,0c-20.711,0-37.656-16.946-37.656-37.657V-71.219
					C674.687-91.93,691.632-108.875,712.344-108.875z"/>
			</g>
			<g>
				<path style="fill:#EBC6B9;" d="M135.064,653.034H4.792c-39.759,0-71.99-32.231-71.99-71.99V471.342
					c0-39.759,32.231-71.99,71.99-71.99h130.272c39.759,0,71.99,32.231,71.99,71.99v109.701
					C207.054,620.802,174.823,653.034,135.064,653.034z"/>
				<path style="fill:#FFFEFD;" d="M-47.163,461.795L-47.163,461.795c0-21.013,17.192-38.205,38.205-38.205h116.698
					c21.012,0,38.205,17.192,38.205,38.205l0,0c0,21.013-17.192,38.205-38.205,38.205H-8.959
					C-29.971,500-47.163,482.808-47.163,461.795z"/>
				<path style="fill:#CEE4E4;" d="M-91.21,461.795L-91.21,461.795c0-21.013,17.192-38.205,38.205-38.205H63.692
					c21.013,0,38.205,17.192,38.205,38.205l0,0c0,21.013-17.192,38.205-38.205,38.205H-53.006
					C-74.018,500-91.21,482.808-91.21,461.795z"/>
			</g>
			<g>
				<path style="fill:#CEE4E4;" d="M750,448.707V500H634.996v-51.293c0-31.629,25.873-57.502,57.502-57.502
					c15.814,0,30.187,6.468,40.613,16.889C743.532,418.515,750,432.893,750,448.707z"/>
				<g>
					<path style="fill:#FFFEFD;" d="M692.498,409.833c-21.586,0-39.144,17.558-39.144,39.145V500h1.08v-51.023
						c0-20.987,17.078-38.065,38.065-38.065c20.987,0,38.065,17.078,38.065,38.065V500h1.08v-51.023
						C731.643,427.391,714.084,409.833,692.498,409.833z"/>
				</g>
				<g>
					<path style="fill:#FFFEFD;" d="M692.633,418.472c-16.673,0-30.236,13.563-30.236,30.236V500h1.08v-51.293
						c0-16.079,13.077-29.156,29.156-29.156c16.079,0,29.156,13.077,29.156,29.156V500h1.08v-51.293
						C722.869,432.034,709.306,418.472,692.633,418.472z"/>
				</g>
			</g>
			<g>
				<path style="fill:#CEE4E4;" d="M0.343,51.226V-0.067l115.004,0v51.293c0,31.629-25.873,57.502-57.502,57.502
					c-15.814,0-30.187-6.468-40.613-16.889C6.811,81.418,0.343,67.04,0.343,51.226z"/>
				<path style="fill:#EBC6B9;" d="M115.347,28.087l0-28.087l62.974,0l0,28.087c0,17.319-14.168,31.487-31.487,31.487
					c-8.66,0-16.53-3.542-22.239-9.248C118.889,44.62,115.347,36.746,115.347,28.087z"/>
				<path style="fill:#EBC6B9;" d="M635.731,471.913V500l-62.974,0v-28.087c0-17.319,14.168-31.487,31.487-31.487
					c8.66,0,16.53,3.542,22.239,9.248C632.189,455.38,635.731,463.254,635.731,471.913z"/>
				<g>
					<path style="fill:#FFFEFD;" d="M57.845,90.1c21.586,0,39.145-17.558,39.145-39.144l0-51.023h-1.08l0,51.023
						c0,20.987-17.078,38.065-38.065,38.065c-20.987,0-38.065-17.078-38.064-38.065V-0.067H18.7v51.023
						C18.7,72.542,36.259,90.1,57.845,90.1z"/>
				</g>
				<g>
					<path style="fill:#FFFEFD;" d="M57.71,81.462c16.673,0,30.236-13.563,30.236-30.236V-0.067h-1.08l0,51.293
						c0,16.079-13.077,29.156-29.156,29.156c-16.079,0-29.156-13.077-29.156-29.156l0-51.293h-1.08l0,51.293
						C27.474,67.899,41.037,81.461,57.71,81.462z"/>
				</g>
			</g>
			<g>
				<g>
					<path style="fill:#142341;" d="M26.594,185.647L26.594,185.647L26.594,185.647c22.338,22.338,58.555,22.338,80.893,0l0,0
						C85.148,163.309,48.931,163.309,26.594,185.647z"/>
					<path style="fill:#142341;" d="M57.2,128.448L57.2,128.448L57.2,128.448c0,31.591-25.609,57.2-57.2,57.2l0,0
						C0,154.057,25.609,128.448,57.2,128.448z"/>
					<path style="fill:#142341;" d="M57.2,242.847L57.2,242.847L57.2,242.847c0-31.591-25.609-57.2-57.2-57.2l0,0
						C0,217.238,25.609,242.847,57.2,242.847z"/>
				</g>
				<g>
					<path style="fill:#142341;" d="M723.427,309.102L723.427,309.102L723.427,309.102c-22.338-22.338-58.555-22.338-80.893,0l0,0
						C664.872,331.44,701.089,331.44,723.427,309.102z"/>
					<path style="fill:#142341;" d="M692.82,366.301L692.82,366.301L692.82,366.301c0-31.591,25.609-57.2,57.2-57.2l0,0
						C750.02,340.692,724.411,366.301,692.82,366.301z"/>
					<path style="fill:#142341;" d="M692.82,251.902L692.82,251.902L692.82,251.902c0,31.591,25.609,57.2,57.2,57.2l0,0
						C750.02,277.511,724.411,251.902,692.82,251.902z"/>
				</g>
			</g>
			<g>
				<path style="fill:#EBC6B9;" d="M427.136-226.233h80.069c0,19.11-20,19.11-20,38.22c0,19.11,20,19.11,20,38.22
					c0,19.11-20,19.11-20,38.22s20,19.11,20,38.22c0,19.12-20,19.12-20,38.23c0,19.11,20,19.11,20,38.22c0,19.12-20,19.12-20,38.23
					s20,19.11,20,38.23h-80.069c0-19.12-20-19.12-20-38.23s20-19.11,20-38.23c0-19.11-20-19.11-20-38.22c0-19.11,20-19.11,20-38.23
					c0-19.11-20-19.11-20-38.22s20-19.11,20-38.22c0-19.11-20-19.11-20-38.22C407.137-207.123,427.136-207.123,427.136-226.233z"/>
				<path style="fill:#EBC6B9;" d="M426.898,79.559l80.31,0c0,22.17-17.98,40.15-40.16,40.15
					C444.878,119.709,426.898,101.729,426.898,79.559z"/>
				<path style="fill:#212C47;" d="M467.328-188.003c0,9.768-5.161,14.7-10.153,19.472c-5.064,4.84-9.847,9.411-9.847,18.759
					c0,9.341,4.782,13.91,9.845,18.748c4.992,4.77,10.155,9.702,10.155,19.472c0,9.768-5.162,14.701-10.153,19.472
					c-5.064,4.84-9.847,9.411-9.847,18.758c0,9.342,4.782,13.911,9.845,18.749c4.993,4.771,10.155,9.703,10.155,19.472
					c0,9.769-5.162,14.701-10.154,19.471c-5.063,4.838-9.846,9.407-9.846,18.749s4.782,13.911,9.846,18.749
					c4.992,4.769,10.154,9.702,10.154,19.471c0,9.768-5.162,14.701-10.155,19.472c-5.063,4.838-9.845,9.407-9.845,18.749h-1
					c0-9.769,5.162-14.701,10.155-19.472c5.063-4.838,9.845-9.407,9.845-18.749c0-9.341-4.782-13.91-9.845-18.748
					c-4.992-4.769-10.155-9.702-10.155-19.472c0-9.77,5.163-14.702,10.155-19.472c5.063-4.838,9.845-9.407,9.845-18.748
					c0-9.342-4.782-13.911-9.845-18.749c-4.993-4.771-10.155-9.703-10.155-19.472c0-9.774,5.163-14.709,10.156-19.481
					c5.062-4.838,9.844-9.408,9.844-18.748c0-9.342-4.782-13.911-9.846-18.749c-4.992-4.77-10.154-9.702-10.154-19.471
					c0-9.775,5.163-14.71,10.156-19.482c5.063-4.838,9.844-9.408,9.844-18.748c0-9.34-4.781-13.909-9.843-18.747
					c-4.994-4.773-10.157-9.707-10.157-19.482h1c0,9.348,4.783,13.919,9.848,18.76C462.167-202.703,467.328-197.77,467.328-188.003z
					"/>
				<path style="fill:#F6F6F6;" d="M474.615-163.459c6.306,0,11.418,5.112,11.418,11.418c0,6.306-5.112,11.418-11.418,11.418
					c-6.306,0-11.418-5.112-11.418-11.418C463.197-158.347,468.309-163.459,474.615-163.459z"/>
				
					<ellipse transform="matrix(0.9999 -0.0119 0.0119 0.9999 -0.0103 5.6283)" style="fill:#F6F6F6;" cx="474.615" cy="3.682" rx="11.418" ry="11.418"/>
				<circle style="fill:#CEE4E4;" cx="436.127" cy="-109.571" r="11.418"/>
				<path style="fill:#CEE4E4;" d="M467.052,58.834c11.445,0,20.723,9.278,20.723,20.723c0,11.445-9.278,20.723-20.723,20.723
					c-11.445,0-20.723-9.278-20.723-20.723S455.607,58.834,467.052,58.834z"/>
			</g>
			<g>
				<path style="fill:#EBC6B9;" d="M350.971,716.977l-80.069,0c0-19.11,20-19.11,20-38.22c0-19.11-20-19.11-20-38.22
					c0-19.11,20-19.11,20-38.22c0-19.11-20-19.11-20-38.22c0-19.12,20-19.12,20-38.23c0-19.11-20-19.11-20-38.22
					c0-19.12,20-19.12,20-38.23c0-19.11-20-19.11-20-38.23l80.069,0c0,19.12,20,19.12,20,38.23c0,19.11-20,19.11-20,38.23
					c0,19.11,20,19.11,20,38.22c0,19.11-20,19.11-20,38.23c0,19.11,20,19.11,20,38.22c0,19.11-20,19.11-20,38.22s20,19.11,20,38.22
					C370.971,697.867,350.971,697.867,350.971,716.977z"/>
				<path style="fill:#EBC6B9;" d="M351.209,411.185h-80.31c0-22.17,17.98-40.15,40.16-40.15
					C333.229,371.035,351.209,389.015,351.209,411.185z"/>
				<path style="fill:#212C47;" d="M310.779,678.747c0-9.768,5.161-14.7,10.153-19.472c5.064-4.84,9.847-9.411,9.847-18.759
					c0-9.341-4.782-13.91-9.845-18.748c-4.992-4.769-10.155-9.702-10.155-19.472c0-9.768,5.161-14.701,10.153-19.472
					c5.064-4.84,9.847-9.411,9.847-18.758c0-9.342-4.782-13.911-9.845-18.749c-4.993-4.77-10.155-9.703-10.155-19.472
					c0-9.769,5.162-14.701,10.154-19.471c5.063-4.838,9.845-9.407,9.845-18.749s-4.782-13.911-9.846-18.749
					c-4.992-4.77-10.154-9.702-10.154-19.471c0-9.768,5.162-14.701,10.155-19.472c5.063-4.838,9.845-9.407,9.845-18.749h1
					c0,9.769-5.162,14.701-10.155,19.472c-5.063,4.838-9.845,9.407-9.845,18.749c0,9.341,4.782,13.91,9.845,18.748
					c4.992,4.77,10.155,9.702,10.155,19.472c0,9.77-5.162,14.702-10.155,19.472c-5.063,4.838-9.845,9.407-9.845,18.748
					c0,9.342,4.782,13.911,9.845,18.749c4.993,4.771,10.155,9.703,10.155,19.472c0,9.774-5.163,14.709-10.156,19.481
					c-5.062,4.838-9.844,9.408-9.844,18.748c0,9.342,4.782,13.911,9.846,18.749c4.992,4.77,10.154,9.702,10.154,19.471
					c0,9.775-5.163,14.71-10.156,19.482c-5.063,4.838-9.844,9.408-9.844,18.748c0,9.34,4.781,13.909,9.843,18.747
					c4.994,4.772,10.157,9.707,10.157,19.482h-1c0-9.348-4.783-13.919-9.848-18.76C315.941,693.447,310.779,688.515,310.779,678.747
					z"/>
				<circle style="fill:#F6F6F6;" cx="303.492" cy="642.785" r="11.418"/>
				<circle style="fill:#F6F6F6;" cx="303.492" cy="487.062" r="11.418"/>
				
					<ellipse transform="matrix(0.9952 -0.0983 0.0983 0.9952 -57.3648 36.5312)" style="fill:#CEE4E4;" cx="341.98" cy="600.315" rx="11.418" ry="11.418"/>
				
					<ellipse transform="matrix(0.3876 -0.9218 0.9218 0.3876 -188.5481 538.5696)" style="fill:#CEE4E4;" cx="311.056" cy="411.187" rx="20.723" ry="20.723"/>
			</g>
		</g>
		<g style="clip-path:url(#SVGID_00000008860794351314978820000016330052674785512625_);">
			<g>
				<g>
					<circle style="fill:#142341;" cx="684.891" cy="225.181" r="1.435"/>
					<path style="fill:#142341;" d="M684.891,209.522c0.793,0,1.435,0.643,1.435,1.435c0,0.793-0.643,1.435-1.435,1.435
						c-0.793,0-1.435-0.643-1.435-1.435C683.456,210.164,684.098,209.522,684.891,209.522z"/>
					<path style="fill:#142341;" d="M684.891,195.298c0.793,0,1.435,0.643,1.435,1.435c0,0.793-0.643,1.435-1.435,1.435
						c-0.793,0-1.435-0.643-1.435-1.435C683.456,195.94,684.098,195.298,684.891,195.298z"/>
					<path style="fill:#142341;" d="M684.891,181.073c0.793,0,1.435,0.643,1.435,1.435c0,0.793-0.643,1.435-1.435,1.435
						c-0.793,0-1.435-0.643-1.435-1.435C683.456,181.716,684.098,181.073,684.891,181.073z"/>
				</g>
				<g>
					<circle style="fill:#142341;" cx="696.994" cy="225.181" r="1.435"/>
					<path style="fill:#142341;" d="M696.994,209.522c0.793,0,1.435,0.643,1.435,1.435c0,0.793-0.643,1.435-1.435,1.435
						s-1.435-0.643-1.435-1.435C695.559,210.164,696.201,209.522,696.994,209.522z"/>
					<path style="fill:#142341;" d="M696.994,195.298c0.793,0,1.435,0.643,1.435,1.435c0,0.793-0.643,1.435-1.435,1.435
						c-0.793,0-1.435-0.643-1.435-1.435C695.559,195.94,696.201,195.298,696.994,195.298z"/>
					<path style="fill:#142341;" d="M696.994,181.073c0.793,0,1.435,0.643,1.435,1.435c0,0.793-0.643,1.435-1.435,1.435
						c-0.793,0-1.435-0.643-1.435-1.435C695.559,181.716,696.201,181.073,696.994,181.073z"/>
				</g>
				<g>
					<circle style="fill:#142341;" cx="709.097" cy="225.181" r="1.435"/>
					<path style="fill:#142341;" d="M709.097,209.522c0.793,0,1.435,0.643,1.435,1.435c0,0.793-0.643,1.435-1.435,1.435
						s-1.435-0.643-1.435-1.435C707.662,210.164,708.305,209.522,709.097,209.522z"/>
					<circle style="fill:#142341;" cx="709.097" cy="196.733" r="1.435"/>
					<path style="fill:#142341;" d="M709.097,181.073c0.793,0,1.435,0.643,1.435,1.435c0,0.793-0.643,1.435-1.435,1.435
						c-0.793,0-1.435-0.643-1.435-1.435C707.662,181.716,708.305,181.073,709.097,181.073z"/>
				</g>
				<g>
					<path style="fill:#142341;" d="M721.201,223.746c0.793,0,1.435,0.643,1.435,1.435c0,0.793-0.643,1.435-1.435,1.435
						c-0.793,0-1.435-0.643-1.435-1.435C719.765,224.388,720.408,223.746,721.201,223.746z"/>
					<path style="fill:#142341;" d="M721.201,209.522c0.793,0,1.435,0.643,1.435,1.435s-0.643,1.435-1.435,1.435
						c-0.793,0-1.435-0.643-1.435-1.435C719.765,210.164,720.408,209.522,721.201,209.522z"/>
					<path style="fill:#142341;" d="M721.2,195.298c0.793,0,1.435,0.643,1.435,1.435c0,0.793-0.643,1.435-1.435,1.435
						c-0.793,0-1.435-0.643-1.435-1.435C719.765,195.94,720.408,195.298,721.2,195.298z"/>
					<path style="fill:#142341;" d="M721.2,181.073c0.793,0,1.435,0.643,1.435,1.435c0,0.793-0.643,1.435-1.435,1.435
						s-1.435-0.643-1.435-1.435C719.765,181.716,720.408,181.073,721.2,181.073z"/>
				</g>
				<g>
					<path style="fill:#142341;" d="M733.304,223.746c0.793,0,1.435,0.643,1.435,1.435s-0.643,1.435-1.435,1.435
						c-0.793,0-1.435-0.643-1.435-1.435C731.868,224.388,732.511,223.746,733.304,223.746z"/>
					<path style="fill:#142341;" d="M733.304,209.522c0.793,0,1.435,0.643,1.435,1.435c0,0.793-0.643,1.435-1.435,1.435
						c-0.793,0-1.435-0.643-1.435-1.435S732.511,209.522,733.304,209.522z"/>
					<path style="fill:#142341;" d="M733.303,195.297c0.793,0,1.435,0.643,1.435,1.435c0,0.793-0.643,1.435-1.435,1.435
						c-0.793,0-1.435-0.643-1.435-1.435C731.868,195.94,732.511,195.298,733.303,195.297z"/>
					<path style="fill:#142341;" d="M733.303,181.073c0.793,0,1.435,0.643,1.435,1.435c0,0.792-0.643,1.435-1.435,1.435
						c-0.793,0-1.435-0.643-1.435-1.435C731.868,181.716,732.511,181.073,733.303,181.073z"/>
				</g>
				<g>
					<circle style="fill:#142341;" cx="745.407" cy="225.181" r="1.435"/>
					<path style="fill:#142341;" d="M745.407,209.522c0.793,0,1.435,0.643,1.435,1.435c0,0.793-0.643,1.435-1.435,1.435
						c-0.793,0-1.435-0.643-1.435-1.435C743.971,210.164,744.614,209.522,745.407,209.522z"/>
					
						<ellipse transform="matrix(0.1606 -0.987 0.987 0.1606 431.511 900.8665)" style="fill:#142341;" cx="745.407" cy="196.733" rx="1.435" ry="1.435"/>
					<path style="fill:#142341;" d="M745.407,181.073c0.793,0,1.435,0.643,1.435,1.435c0,0.793-0.643,1.435-1.435,1.435
						c-0.793,0-1.435-0.643-1.435-1.435C743.971,181.716,744.614,181.073,745.407,181.073z"/>
				</g>
				<g>
					<path style="fill:#142341;" d="M757.51,223.746c0.793,0,1.435,0.643,1.435,1.435s-0.643,1.435-1.435,1.435
						c-0.793,0-1.435-0.643-1.435-1.435S756.717,223.746,757.51,223.746z"/>
					<path style="fill:#142341;" d="M757.51,209.522c0.793,0,1.435,0.643,1.435,1.435c0,0.793-0.643,1.435-1.435,1.435
						c-0.793,0-1.435-0.643-1.435-1.435C756.075,210.164,756.717,209.522,757.51,209.522z"/>
					<circle style="fill:#142341;" cx="757.51" cy="196.733" r="1.435"/>
					<path style="fill:#142341;" d="M757.51,181.073c0.793,0,1.435,0.643,1.435,1.435c0,0.793-0.643,1.435-1.435,1.435
						s-1.435-0.643-1.435-1.435C756.075,181.716,756.717,181.073,757.51,181.073z"/>
				</g>
				<g>
					<path style="fill:#142341;" d="M769.613,223.746c0.793,0,1.435,0.643,1.435,1.435s-0.643,1.435-1.435,1.435
						c-0.793,0-1.435-0.643-1.435-1.435S768.82,223.746,769.613,223.746z"/>
					<path style="fill:#142341;" d="M769.613,209.522c0.793,0,1.435,0.643,1.435,1.435c0,0.793-0.643,1.435-1.435,1.435
						c-0.793,0-1.435-0.643-1.435-1.435C768.178,210.164,768.82,209.522,769.613,209.522z"/>
					<path style="fill:#142341;" d="M769.613,195.297c0.793,0,1.435,0.643,1.435,1.435c0,0.793-0.643,1.435-1.435,1.435
						c-0.793,0-1.435-0.643-1.435-1.435C768.178,195.94,768.82,195.297,769.613,195.297z"/>
					<path style="fill:#142341;" d="M769.613,181.073c0.793,0,1.435,0.643,1.435,1.435c0,0.793-0.643,1.435-1.435,1.435
						c-0.793,0-1.435-0.643-1.435-1.435C768.178,181.716,768.82,181.073,769.613,181.073z"/>
				</g>
				<g>
					<path style="fill:#142341;" d="M781.716,223.746c0.793,0,1.435,0.643,1.435,1.435c0,0.793-0.643,1.435-1.435,1.435
						c-0.793,0-1.435-0.643-1.435-1.435C780.281,224.388,780.924,223.746,781.716,223.746z"/>
					<circle style="fill:#142341;" cx="781.716" cy="210.957" r="1.435"/>
					<circle style="fill:#142341;" cx="781.716" cy="196.733" r="1.435"/>
					<circle style="fill:#142341;" cx="781.716" cy="182.509" r="1.435"/>
				</g>
				<g>
					<path style="fill:#142341;" d="M793.819,223.746c0.793,0,1.435,0.643,1.435,1.435c0,0.793-0.643,1.435-1.435,1.435
						c-0.793,0-1.435-0.643-1.435-1.435C792.384,224.388,793.027,223.746,793.819,223.746z"/>
					<circle style="fill:#142341;" cx="793.819" cy="210.957" r="1.435"/>
					<circle style="fill:#142341;" cx="793.819" cy="196.733" r="1.435"/>
					<circle style="fill:#142341;" cx="793.819" cy="182.509" r="1.435"/>
				</g>
				<g>
					<path style="fill:#142341;" d="M805.923,223.746c0.793,0,1.435,0.643,1.435,1.435c0,0.793-0.643,1.435-1.435,1.435
						c-0.793,0-1.435-0.643-1.435-1.435C804.487,224.388,805.13,223.746,805.923,223.746z"/>
					
						<ellipse transform="matrix(0.1606 -0.987 0.987 0.1606 468.2954 972.5486)" style="fill:#142341;" cx="805.923" cy="210.957" rx="1.435" ry="1.435"/>
					<circle style="fill:#142341;" cx="805.923" cy="196.733" r="1.435"/>
					<circle style="fill:#142341;" cx="805.923" cy="182.509" r="1.435"/>
				</g>
				<g>
					<path style="fill:#142341;" d="M818.026,223.746c0.793,0,1.435,0.643,1.435,1.435c0,0.793-0.643,1.435-1.435,1.435
						c-0.793,0-1.435-0.643-1.435-1.435C816.59,224.388,817.233,223.746,818.026,223.746z"/>
					<path style="fill:#142341;" d="M818.026,209.522c0.793,0,1.435,0.642,1.435,1.435c0,0.793-0.643,1.435-1.435,1.435
						c-0.793,0-1.435-0.643-1.435-1.435C816.591,210.164,817.233,209.522,818.026,209.522z"/>
					<path style="fill:#142341;" d="M818.026,195.297c0.793,0,1.435,0.643,1.435,1.435c0,0.793-0.643,1.435-1.435,1.435
						c-0.793,0-1.435-0.643-1.435-1.435C816.59,195.94,817.233,195.297,818.026,195.297z"/>
					<path style="fill:#142341;" d="M818.026,181.073c0.793,0,1.435,0.643,1.435,1.435c0,0.793-0.643,1.435-1.435,1.435
						c-0.793,0-1.435-0.643-1.435-1.435C816.59,181.716,817.233,181.073,818.026,181.073z"/>
				</g>
				<g>
					<path style="fill:#142341;" d="M830.129,223.746c0.793,0,1.435,0.643,1.435,1.435c0,0.793-0.643,1.435-1.435,1.435
						c-0.793,0-1.435-0.643-1.435-1.435C828.694,224.388,829.336,223.746,830.129,223.746z"/>
					<path style="fill:#142341;" d="M830.129,209.521c0.793,0,1.435,0.643,1.435,1.435c0,0.793-0.643,1.435-1.435,1.435
						c-0.793,0-1.435-0.643-1.435-1.435C828.694,210.164,829.336,209.521,830.129,209.521z"/>
					<path style="fill:#142341;" d="M830.129,195.297c0.793,0,1.435,0.643,1.435,1.435c0,0.793-0.643,1.435-1.435,1.435
						c-0.793,0-1.435-0.643-1.435-1.435C828.694,195.94,829.336,195.297,830.129,195.297z"/>
					<circle style="fill:#142341;" cx="830.129" cy="182.508" r="1.435"/>
				</g>
			</g>
		</g>
		<g style="clip-path:url(#SVGID_00000008860794351314978820000016330052674785512625_);">
			<g>
				<g>
					<circle style="fill:#142341;" cx="-101.621" cy="345.546" r="1.435"/>
					<circle style="fill:#142341;" cx="-101.621" cy="331.322" r="1.435"/>
					<path style="fill:#142341;" d="M-101.621,315.663c0.793,0,1.435,0.643,1.435,1.435s-0.643,1.435-1.435,1.435
						c-0.793,0-1.435-0.643-1.435-1.435S-102.414,315.663-101.621,315.663z"/>
					<path style="fill:#142341;" d="M-101.621,301.438c0.793,0,1.435,0.643,1.435,1.435c0,0.793-0.643,1.435-1.435,1.435
						c-0.793,0-1.435-0.643-1.435-1.435C-103.057,302.081-102.414,301.438-101.621,301.438z"/>
				</g>
				<g>
					<circle style="fill:#142341;" cx="-89.518" cy="345.546" r="1.435"/>
					<path style="fill:#142341;" d="M-89.518,329.887c0.793,0,1.435,0.643,1.435,1.435c0,0.793-0.643,1.435-1.435,1.435
						c-0.793,0-1.435-0.643-1.435-1.435C-90.953,330.529-90.311,329.887-89.518,329.887z"/>
					<circle style="fill:#142341;" cx="-89.518" cy="317.098" r="1.435"/>
					<circle style="fill:#142341;" cx="-89.518" cy="302.874" r="1.435"/>
				</g>
				<g>
					<circle style="fill:#142341;" cx="-77.415" cy="345.546" r="1.435"/>
					<path style="fill:#142341;" d="M-77.415,329.887c0.793,0,1.435,0.643,1.435,1.435c0,0.793-0.643,1.435-1.435,1.435
						c-0.793,0-1.435-0.643-1.435-1.435C-78.85,330.529-78.207,329.887-77.415,329.887z"/>
					<circle style="fill:#142341;" cx="-77.415" cy="317.098" r="1.435"/>
					<path style="fill:#142341;" d="M-77.415,301.439c0.793,0,1.435,0.643,1.435,1.435c0,0.793-0.643,1.435-1.435,1.435
						s-1.435-0.643-1.435-1.435C-78.85,302.081-78.208,301.439-77.415,301.439z"/>
				</g>
				<g>
					<path style="fill:#142341;" d="M-65.312,344.111c0.793,0,1.435,0.643,1.435,1.435s-0.643,1.435-1.435,1.435
						c-0.793,0-1.435-0.643-1.435-1.435S-66.104,344.111-65.312,344.111z"/>
					<path style="fill:#142341;" d="M-65.312,329.887c0.793,0,1.435,0.643,1.435,1.435c0,0.793-0.643,1.435-1.435,1.435
						c-0.793,0-1.435-0.643-1.435-1.435C-66.747,330.529-66.104,329.887-65.312,329.887z"/>
					<path style="fill:#142341;" d="M-65.312,315.663c0.793,0,1.435,0.643,1.435,1.435s-0.643,1.435-1.435,1.435
						c-0.793,0-1.435-0.643-1.435-1.435S-66.104,315.663-65.312,315.663z"/>
					<path style="fill:#142341;" d="M-65.312,301.439c0.793,0,1.435,0.643,1.435,1.435c0,0.793-0.643,1.435-1.435,1.435
						s-1.435-0.643-1.435-1.435C-66.747,302.081-66.104,301.439-65.312,301.439z"/>
				</g>
				<g>
					<circle style="fill:#142341;" cx="-53.208" cy="345.546" r="1.435"/>
					<circle style="fill:#142341;" cx="-53.208" cy="331.322" r="1.435"/>
					<circle style="fill:#142341;" cx="-53.209" cy="317.098" r="1.435"/>
					<path style="fill:#142341;" d="M-53.209,301.439c0.793,0,1.435,0.643,1.435,1.435c0,0.793-0.643,1.435-1.435,1.435
						c-0.793,0-1.435-0.643-1.435-1.435C-54.644,302.081-54.001,301.439-53.209,301.439z"/>
				</g>
				<g>
					<circle style="fill:#142341;" cx="-41.105" cy="345.546" r="1.435"/>
					<circle style="fill:#142341;" cx="-41.105" cy="331.322" r="1.435"/>
					<circle style="fill:#142341;" cx="-41.105" cy="317.098" r="1.435"/>
					<path style="fill:#142341;" d="M-41.105,301.439c0.793,0,1.435,0.643,1.435,1.435c0,0.793-0.643,1.435-1.435,1.435
						s-1.435-0.643-1.435-1.435C-42.541,302.081-41.898,301.439-41.105,301.439z"/>
				</g>
				<g>
					<circle style="fill:#142341;" cx="-29.002" cy="345.546" r="1.435"/>
					<path style="fill:#142341;" d="M-29.002,329.887c0.793,0,1.435,0.642,1.435,1.435c0,0.793-0.643,1.435-1.435,1.435
						s-1.435-0.642-1.435-1.435C-30.437,330.529-29.795,329.887-29.002,329.887z"/>
					<circle style="fill:#142341;" cx="-29.002" cy="317.098" r="1.435"/>
					<path style="fill:#142341;" d="M-29.002,301.438c0.793,0,1.435,0.643,1.435,1.435c0,0.792-0.643,1.435-1.435,1.435
						c-0.793,0-1.435-0.643-1.435-1.435C-30.438,302.081-29.795,301.438-29.002,301.438z"/>
				</g>
				<g>
					<path style="fill:#142341;" d="M-16.899,344.111c0.793,0,1.435,0.643,1.435,1.435c0,0.793-0.643,1.435-1.435,1.435
						c-0.793,0-1.435-0.643-1.435-1.435C-18.334,344.753-17.692,344.111-16.899,344.111z"/>
					<path style="fill:#142341;" d="M-16.899,329.887c0.793,0,1.435,0.643,1.435,1.435s-0.643,1.435-1.435,1.435
						c-0.793,0-1.435-0.643-1.435-1.435S-17.692,329.887-16.899,329.887z"/>
					<path style="fill:#142341;" d="M-16.899,315.663c0.793,0,1.435,0.643,1.435,1.435s-0.643,1.435-1.435,1.435
						c-0.793,0-1.435-0.643-1.435-1.435S-17.692,315.663-16.899,315.663z"/>
					<path style="fill:#142341;" d="M-16.899,301.438c0.793,0,1.435,0.643,1.435,1.435c0,0.793-0.643,1.435-1.435,1.435
						c-0.793,0-1.435-0.643-1.435-1.435C-18.334,302.081-17.692,301.438-16.899,301.438z"/>
				</g>
				<g>
					<path style="fill:#142341;" d="M-4.796,344.111c0.793,0,1.435,0.643,1.435,1.435c0,0.793-0.643,1.435-1.435,1.435
						s-1.435-0.643-1.435-1.435C-6.231,344.754-5.589,344.111-4.796,344.111z"/>
					<circle style="fill:#142341;" cx="-4.796" cy="331.322" r="1.435"/>
					<circle style="fill:#142341;" cx="-4.796" cy="317.098" r="1.435"/>
					<circle style="fill:#142341;" cx="-4.796" cy="302.874" r="1.435"/>
				</g>
				<g>
					<path style="fill:#142341;" d="M7.307,344.111c0.793,0,1.435,0.643,1.435,1.435c0,0.793-0.643,1.435-1.435,1.435
						c-0.793,0-1.435-0.643-1.435-1.435C5.872,344.754,6.515,344.111,7.307,344.111z"/>
					<circle style="fill:#142341;" cx="7.307" cy="331.322" r="1.435"/>
					<circle style="fill:#142341;" cx="7.307" cy="317.098" r="1.435"/>
					<circle style="fill:#142341;" cx="7.307" cy="302.874" r="1.435"/>
				</g>
				<g>
					<path style="fill:#142341;" d="M19.411,344.111c0.793,0,1.435,0.643,1.435,1.435c0,0.793-0.643,1.435-1.435,1.435
						s-1.435-0.643-1.435-1.435C17.975,344.754,18.618,344.111,19.411,344.111z"/>
					<circle style="fill:#142341;" cx="19.411" cy="331.322" r="1.435"/>
					<circle style="fill:#142341;" cx="19.41" cy="317.098" r="1.435"/>
					<circle style="fill:#142341;" cx="19.41" cy="302.874" r="1.435"/>
				</g>
				<g>
					<path style="fill:#142341;" d="M31.514,344.111c0.793,0,1.435,0.643,1.435,1.435c0,0.793-0.643,1.435-1.435,1.435
						s-1.435-0.643-1.435-1.435C30.078,344.754,30.721,344.111,31.514,344.111z"/>
					<path style="fill:#142341;" d="M31.514,329.887c0.793,0,1.435,0.643,1.435,1.435s-0.643,1.435-1.435,1.435
						c-0.793,0-1.435-0.643-1.435-1.435S30.721,329.887,31.514,329.887z"/>
					<path style="fill:#142341;" d="M31.514,315.663c0.793,0,1.435,0.643,1.435,1.435s-0.643,1.435-1.435,1.435
						c-0.793,0-1.435-0.643-1.435-1.435S30.721,315.663,31.514,315.663z"/>
					<path style="fill:#142341;" d="M31.514,301.438c0.793,0,1.435,0.643,1.435,1.435c0,0.793-0.643,1.435-1.435,1.435
						c-0.793,0-1.435-0.643-1.435-1.435C30.078,302.081,30.721,301.438,31.514,301.438z"/>
				</g>
				<g>
					<path style="fill:#142341;" d="M43.617,344.111c0.793,0,1.435,0.643,1.435,1.435c0,0.793-0.643,1.435-1.435,1.435
						c-0.793,0-1.435-0.643-1.435-1.435C42.182,344.753,42.824,344.111,43.617,344.111z"/>
					<path style="fill:#142341;" d="M43.617,329.887c0.793,0,1.435,0.643,1.435,1.435c0,0.793-0.643,1.435-1.435,1.435
						c-0.793,0-1.435-0.643-1.435-1.435C42.182,330.529,42.824,329.887,43.617,329.887z"/>
					<path style="fill:#142341;" d="M43.617,315.663c0.793,0,1.435,0.643,1.435,1.435c0,0.793-0.643,1.435-1.435,1.435
						c-0.793,0-1.435-0.643-1.435-1.435C42.181,316.305,42.824,315.663,43.617,315.663z"/>
					<path style="fill:#142341;" d="M43.617,301.438c0.793,0,1.435,0.643,1.435,1.435c0,0.793-0.643,1.435-1.435,1.435
						c-0.793,0-1.435-0.643-1.435-1.435C42.181,302.081,42.824,301.438,43.617,301.438z"/>
				</g>
			</g>
		</g>
	</g>
	<g>
		<g>
			<g>
				<path style="fill:#E8E5E3;" d="M337.572,34.099L337.572,34.099c0,10.871-8.895,19.766-19.766,19.766h-60.377
					c-10.871,0-19.766-8.895-19.766-19.766l0,0c0-10.871,8.895-19.766,19.766-19.766h60.377
					C328.677,14.333,337.572,23.228,337.572,34.099z"/>
				<path style="fill:none;stroke:#212C47;stroke-miterlimit:10;" d="M370.89,47.086L370.89,47.086
					c0,10.871-8.895,19.766-19.766,19.766h-60.377c-10.871,0-19.766-8.895-19.766-19.766l0,0c0-10.871,8.895-19.766,19.766-19.766
					h60.377C361.995,27.319,370.89,36.214,370.89,47.086z"/>
			</g>
			<g>
				<path style="fill:#E8E5E3;" d="M550.394,445.603L550.394,445.603c0,10.872-8.895,19.766-19.766,19.766h-60.377
					c-10.871,0-19.766-8.895-19.766-19.766l0,0c0-10.871,8.895-19.766,19.766-19.766h60.377
					C541.499,425.836,550.394,434.731,550.394,445.603z"/>
				<path style="fill:none;stroke:#212C47;stroke-miterlimit:10;" d="M511.496,459.155L511.496,459.155
					c0,10.871-8.895,19.766-19.766,19.766h-60.377c-10.871,0-19.766-8.895-19.766-19.766l0,0c0-10.871,8.895-19.766,19.766-19.766
					h60.377C502.601,439.388,511.496,448.283,511.496,459.155z"/>
			</g>
		</g>
		<g>
			<g>
				<g>
					
						<ellipse transform="matrix(0.921 -0.3895 0.3895 0.921 -29.3881 262.8676)" style="fill:#CEE4E4;" cx="633.472" cy="203.898" rx="28.988" ry="28.988"/>
					<g>
						<g>
							<path style="fill:#142341;" d="M621.108,246.127L621.108,246.127L621.108,246.127c-1.219-0.212-2.041-1.373-1.829-2.599l0,0
								c0.212-1.22,1.38-2.041,2.599-1.823l0,0c1.22,0.212,2.041,1.373,1.829,2.593l0,0c-0.192,1.098-1.142,1.861-2.214,1.861l0,0
								C621.372,246.159,621.237,246.153,621.108,246.127z M628.971,244.291c-0.212-1.219,0.604-2.381,1.823-2.599l0,0
								c1.226-0.212,2.388,0.604,2.606,1.823l0,0c0.212,1.226-0.604,2.388-1.823,2.606l0,0c-0.135,0.019-0.263,0.032-0.392,0.032
								l0,0C630.113,246.153,629.163,245.389,628.971,244.291z M611.257,242.559c-1.072-0.623-1.444-1.996-0.822-3.068l0,0
								c0.622-1.078,1.996-1.444,3.068-0.822l0,0c1.078,0.616,1.444,1.99,0.828,3.068l0,0c-0.418,0.719-1.175,1.123-1.951,1.123l0,0
								C612.001,242.861,611.616,242.764,611.257,242.559z M638.341,241.712c-0.617-1.072-0.257-2.452,0.821-3.068l0,0
								c1.072-0.622,2.446-0.256,3.068,0.815l0,0c0.622,1.072,0.257,2.445-0.815,3.067l0,0c0,0,0,0,0,0.007l0,0
								c-0.353,0.205-0.744,0.301-1.123,0.301l0,0C639.515,242.835,638.758,242.43,638.341,241.712z M603.234,235.833
								c-0.802-0.95-0.681-2.362,0.27-3.164l0,0c0.949-0.796,2.368-0.674,3.164,0.27l0,0c0.802,0.949,0.681,2.368-0.269,3.17l0,0
								c-0.418,0.354-0.931,0.526-1.444,0.526l0,0C604.312,236.635,603.677,236.365,603.234,235.833z M646.261,236.07
								c-0.95-0.796-1.072-2.214-0.276-3.164l0,0c0.802-0.95,2.214-1.079,3.164-0.277l0,0c0.95,0.796,1.072,2.214,0.276,3.165l0,0
								c-0.443,0.526-1.078,0.802-1.72,0.802l0,0C647.198,236.597,646.685,236.423,646.261,236.07z M597.978,226.783
								c-0.424-1.168,0.174-2.458,1.341-2.882l0,0c1.162-0.43,2.452,0.173,2.882,1.335l0,0c0.424,1.161-0.18,2.458-1.341,2.882l0,0
								c-0.257,0.096-0.513,0.135-0.77,0.135l0,0C599.172,228.253,598.312,227.688,597.978,226.783z M651.787,228.067
								c-1.168-0.424-1.765-1.714-1.341-2.876l0,0c0.424-1.168,1.714-1.771,2.882-1.341l0,0c1.161,0.424,1.765,1.714,1.341,2.875
								l0,0c-0.333,0.912-1.194,1.483-2.112,1.483l0,0C652.301,228.208,652.044,228.163,651.787,228.067z M596.149,216.475
								c0-1.245,1.001-2.253,2.24-2.253l0,0c1.245-0.006,2.253,1.001,2.253,2.24l0,0c0,1.238-1.002,2.253-2.24,2.253l0,0
								C597.156,218.715,596.149,217.715,596.149,216.475z M651.986,216.412c0-0.006,0-0.013,0-0.02l0,0c0-0.032,0-0.058,0-0.083
								v-0.006c-0.006-1.239,0.995-2.246,2.24-2.253l0,0c1.239,0,2.246,0.995,2.253,2.24l0,0c0,0.019,0,0.045,0,0.065l0,0
								c0,0.019,0,0.038,0,0.058l0,0c0,1.238-1.008,2.246-2.246,2.246l0,0C652.993,218.658,651.986,217.65,651.986,216.412z
								 M599.287,209.031c-1.168-0.424-1.771-1.714-1.348-2.876l0,0l0,0l0,0c0.417-1.168,1.707-1.771,2.875-1.348l0,0
								c1.168,0.417,1.771,1.707,1.348,2.875l0,0c-0.334,0.911-1.194,1.483-2.112,1.483l0,0
								C599.794,209.165,599.537,209.12,599.287,209.031z M650.414,207.535c-0.43-1.162,0.167-2.452,1.329-2.882l0,0
								c1.161-0.43,2.451,0.167,2.881,1.329l0,0c0.43,1.168-0.167,2.458-1.328,2.888l0,0c-0.257,0.09-0.52,0.135-0.777,0.135l0,0
								C651.601,209.005,650.747,208.447,650.414,207.535z M603.446,200.238c-0.956-0.796-1.085-2.214-0.289-3.164l0,0
								c0.796-0.95,2.214-1.079,3.164-0.283l0,0c0.956,0.796,1.078,2.214,0.289,3.164l0,0c-0.449,0.533-1.085,0.809-1.727,0.809l0,0
								C604.376,200.764,603.863,200.591,603.446,200.238z M645.921,199.84c-0.802-0.943-0.68-2.362,0.269-3.164l0,0
								c0.943-0.802,2.362-0.681,3.164,0.263l0,0c0.796,0.95,0.681,2.362-0.263,3.164l0,0c-0.424,0.359-0.944,0.533-1.451,0.533l0,0
								C646.999,200.636,646.364,200.366,645.921,199.84z M610.346,193.396c-0.623-1.072-0.257-2.452,0.815-3.074l0,0l0,0l0,0
								c1.072-0.622,2.446-0.256,3.068,0.815l0,0c0.629,1.072,0.263,2.445-0.809,3.068l0,0c-0.353,0.212-0.744,0.308-1.13,0.308l0,0
								C611.52,194.513,610.762,194.115,610.346,193.396z M639.073,194.128c-1.072-0.617-1.444-1.99-0.828-3.062l0,0
								c0.616-1.078,1.996-1.45,3.068-0.828l0,0l0,0l0,0c1.078,0.616,1.444,1.983,0.828,3.062l0,0
								c-0.411,0.725-1.168,1.129-1.951,1.129l0,0C639.81,194.43,639.426,194.333,639.073,194.128z M619.177,189.321
								c-0.218-1.22,0.591-2.388,1.816-2.606l0,0l0,0l0,0c1.219-0.218,2.387,0.597,2.605,1.816l0,0
								c0.218,1.226-0.597,2.388-1.823,2.606h0.006c-0.135,0.026-0.27,0.038-0.398,0.038l0,0
								C620.319,191.175,619.369,190.405,619.177,189.321z M630.697,191.111c-1.226-0.212-2.041-1.374-1.836-2.593l0,0
								c0.212-1.226,1.373-2.048,2.599-1.836l0,0c0,0,0,0-0.006,0l0,0c1.226,0.212,2.047,1.373,1.836,2.593l0,0
								c-0.186,1.097-1.136,1.868-2.214,1.868l0,0C630.954,191.143,630.825,191.13,630.697,191.111z"/>
						</g>
					</g>
				</g>
				<g>
					<circle style="fill:#CEE4E4;" cx="96.028" cy="327.134" r="28.988"/>
					<g>
						<g>
							<path style="fill:#142341;" d="M112.446,348.469L112.446,348.469L112.446,348.469c-1.219-0.212-2.041-1.373-1.829-2.599l0,0
								c0.212-1.22,1.379-2.041,2.599-1.823l0,0c1.22,0.212,2.041,1.373,1.829,2.593l0,0c-0.192,1.098-1.142,1.861-2.214,1.861l0,0
								C112.709,348.501,112.575,348.495,112.446,348.469z M120.308,346.634c-0.212-1.219,0.604-2.381,1.823-2.599l0,0
								c1.226-0.212,2.388,0.604,2.606,1.823l0,0c0.212,1.226-0.604,2.388-1.823,2.606l0,0c-0.135,0.019-0.263,0.032-0.392,0.032
								l0,0C121.451,348.495,120.501,347.731,120.308,346.634z M102.595,344.901c-1.072-0.623-1.444-1.996-0.822-3.068l0,0
								c0.622-1.078,1.996-1.444,3.068-0.822l0,0c1.078,0.616,1.444,1.99,0.828,3.068l0,0c-0.417,0.719-1.175,1.123-1.951,1.123l0,0
								C103.339,345.203,102.954,345.106,102.595,344.901z M129.679,344.054c-0.617-1.072-0.257-2.452,0.821-3.068l0,0
								c1.072-0.622,2.446-0.256,3.068,0.815l0,0c0.622,1.072,0.257,2.445-0.815,3.067l0,0c0,0,0,0,0,0.007l0,0
								c-0.353,0.205-0.744,0.302-1.123,0.302l0,0C130.853,345.177,130.096,344.773,129.679,344.054z M94.572,338.175
								c-0.802-0.95-0.681-2.362,0.27-3.164l0,0c0.95-0.796,2.368-0.674,3.164,0.27l0,0c0.802,0.949,0.681,2.368-0.27,3.17l0,0
								c-0.417,0.354-0.931,0.526-1.444,0.526l0,0C95.65,338.977,95.015,338.708,94.572,338.175z M137.599,338.412
								c-0.95-0.796-1.072-2.214-0.276-3.164l0,0c0.802-0.95,2.214-1.079,3.164-0.276l0,0c0.95,0.796,1.072,2.214,0.276,3.165l0,0
								c-0.443,0.526-1.078,0.802-1.72,0.802l0,0C138.536,338.939,138.023,338.765,137.599,338.412z M89.315,329.125
								c-0.424-1.168,0.174-2.458,1.341-2.882l0,0c1.162-0.43,2.452,0.173,2.882,1.335l0,0c0.424,1.161-0.18,2.458-1.341,2.882l0,0
								c-0.257,0.096-0.513,0.135-0.77,0.135l0,0C90.509,330.595,89.649,330.03,89.315,329.125z M143.124,330.409
								c-1.168-0.424-1.765-1.714-1.341-2.876l0,0c0.424-1.168,1.714-1.771,2.882-1.341l0,0c1.161,0.424,1.765,1.714,1.341,2.875
								l0,0c-0.333,0.912-1.194,1.483-2.112,1.483l0,0C143.639,330.55,143.382,330.505,143.124,330.409z M87.486,318.818
								c0-1.245,1.001-2.253,2.24-2.253l0,0c1.245-0.006,2.253,1.001,2.253,2.24l0,0c0,1.238-1.002,2.253-2.24,2.253l0,0
								C88.494,321.058,87.486,320.057,87.486,318.818z M143.324,318.754c0-0.006,0-0.013,0-0.019l0,0c0-0.032,0-0.058,0-0.083
								v-0.006c-0.006-1.239,0.995-2.246,2.24-2.253l0,0c1.239,0,2.246,0.995,2.253,2.24l0,0c0,0.019,0,0.045,0,0.065l0,0
								c0,0.019,0,0.038,0,0.058l0,0c0,1.238-1.008,2.246-2.246,2.246l0,0C144.331,321,143.324,319.992,143.324,318.754z
								 M90.625,311.373c-1.168-0.424-1.771-1.714-1.348-2.876l0,0l0,0l0,0c0.417-1.168,1.707-1.771,2.875-1.348l0,0
								c1.168,0.417,1.771,1.707,1.348,2.875l0,0c-0.334,0.911-1.194,1.483-2.112,1.483l0,0
								C91.132,311.508,90.875,311.463,90.625,311.373z M141.751,309.878c-0.43-1.162,0.167-2.452,1.329-2.882l0,0
								c1.161-0.43,2.451,0.167,2.881,1.329l0,0c0.43,1.168-0.167,2.458-1.328,2.888l0,0c-0.257,0.09-0.52,0.135-0.777,0.135l0,0
								C142.938,311.347,142.085,310.789,141.751,309.878z M94.784,302.58c-0.956-0.796-1.085-2.214-0.289-3.164l0,0
								c0.796-0.95,2.214-1.079,3.164-0.283l0,0c0.957,0.796,1.078,2.214,0.289,3.164l0,0c-0.449,0.533-1.085,0.809-1.727,0.809l0,0
								C95.714,303.107,95.201,302.933,94.784,302.58z M137.259,302.182c-0.802-0.943-0.68-2.362,0.27-3.164l0,0
								c0.943-0.802,2.362-0.681,3.164,0.263l0,0c0.796,0.95,0.681,2.362-0.263,3.164l0,0c-0.424,0.359-0.944,0.533-1.451,0.533l0,0
								C138.337,302.978,137.702,302.708,137.259,302.182z M101.683,295.738c-0.623-1.072-0.257-2.452,0.815-3.074l0,0l0,0l0,0
								c1.072-0.622,2.446-0.256,3.068,0.815l0,0c0.629,1.072,0.263,2.445-0.809,3.068l0,0c-0.354,0.212-0.745,0.308-1.13,0.308l0,0
								C102.858,296.855,102.1,296.457,101.683,295.738z M130.411,296.47c-1.072-0.617-1.444-1.99-0.828-3.062l0,0
								c0.616-1.078,1.996-1.45,3.068-0.828l0,0l0,0l0,0c1.078,0.616,1.444,1.983,0.828,3.062l0,0
								c-0.411,0.725-1.168,1.13-1.951,1.13l0,0C131.148,296.772,130.764,296.675,130.411,296.47z M110.514,291.663
								c-0.218-1.22,0.59-2.388,1.817-2.606l0,0l0,0l0,0c1.219-0.218,2.387,0.597,2.605,1.817l0,0
								c0.218,1.226-0.597,2.388-1.823,2.606h0.006c-0.135,0.026-0.27,0.038-0.398,0.038l0,0
								C111.657,293.518,110.707,292.747,110.514,291.663z M122.035,293.454c-1.226-0.212-2.041-1.374-1.836-2.593l0,0
								c0.212-1.226,1.373-2.048,2.599-1.836l0,0c0,0,0,0-0.006,0l0,0c1.226,0.212,2.048,1.373,1.836,2.593l0,0
								c-0.186,1.098-1.136,1.868-2.214,1.868l0,0C122.291,293.486,122.163,293.473,122.035,293.454z"/>
						</g>
					</g>
				</g>
			</g>
			<g>
				
					<rect x="632.498" y="37.781" transform="matrix(6.123234e-17 -1 1 6.123234e-17 594.7166 677.644)" style="fill:#142341;" width="7.365" height="7.365"/>
				
					<rect x="612.498" y="37.781" transform="matrix(6.123234e-17 -1 1 6.123234e-17 574.7164 657.6442)" style="fill:#142341;" width="7.365" height="7.365"/>
				
					<rect x="592.498" y="37.782" transform="matrix(6.123234e-17 -1 1 6.123234e-17 554.7164 637.6442)" style="fill:#142341;" width="7.365" height="7.365"/>
				
					<rect x="572.498" y="37.782" transform="matrix(6.123234e-17 -1 1 6.123234e-17 534.7164 617.6442)" style="fill:#142341;" width="7.365" height="7.365"/>
			</g>
			<g>
				
					<rect x="230.298" y="453.569" transform="matrix(6.123234e-17 -1 1 6.123234e-17 -223.2711 691.2319)" style="fill:#142341;" width="7.365" height="7.365"/>
				
					<rect x="210.298" y="453.569" transform="matrix(6.123234e-17 -1 1 6.123234e-17 -243.2711 671.2319)" style="fill:#142341;" width="7.365" height="7.365"/>
				
					<rect x="190.298" y="453.569" transform="matrix(6.123234e-17 -1 1 6.123234e-17 -263.2711 651.2319)" style="fill:#142341;" width="7.365" height="7.365"/>
				
					<rect x="170.298" y="453.569" transform="matrix(6.123234e-17 -1 1 6.123234e-17 -283.2711 631.2319)" style="fill:#142341;" width="7.365" height="7.365"/>
			</g>
		</g>
	</g>
</g>
</svg>
